<svg width="500" height="597" viewBox="0 0 500 597" fill="none" xmlns="http://www.w3.org/2000/svg">
<path d="M255.278 3.09985C237.916 -1.11039 220.022 0.291722 203.576 5.56903C166.024 17.8319 138.081 50.702 143.685 86.0484L147 107.244L129.962 94.2071C106.908 76.4402 74.6668 78.9939 48.0336 95.1341C41.9042 98.9517 35.9892 103.336 30.6372 108.375C1.97927 135.649 -12.2841 179.255 16.9439 228.418C37.8163 263.422 91.2864 283.548 146.929 296.289C174.885 302.63 202.878 307.317 227.291 311.988C233.395 313.156 239.257 314.263 244.849 315.429L411.879 596.377L450.183 573.604L450.094 573.453L499.225 544.345L476.452 506.041L427.321 535.149L410.824 507.401L442.794 488.394L420.022 450.09L388.051 469.097L372.81 443.46L455.933 393.939L433.16 355.635L350.037 405.156L283.153 292.656C284.8 287.187 286.628 281.508 288.518 275.588C296.075 251.909 305.33 225.077 313.114 197.488C328.35 142.608 336.356 85.9535 315.577 50.8829C299.183 23.2377 277.581 8.51551 255.278 3.09985Z" fill="#FFB5A7"/>
</svg>
