<svg width="24" height="24" viewBox="0 0 24 24" fill="none" xmlns="http://www.w3.org/2000/svg">
<g clip-path="url(#clip0_100_16)">
<path d="M18.1808 11.5748V0H5.9104V11.5748H0V24.0065H24V11.5748H18.1808ZM0.651643 12.224H3.03665V23.3508H0.651643V12.224ZM5.9104 23.3508H3.69481V12.224H5.9104V23.3508ZM8.78414 23.3508H6.56856V12.224H8.78414V23.3508ZM11.7361 23.3508H9.43579V12.224H11.7361V23.3508ZM14.5251 23.3508H12.3877V12.224H14.5251V23.3508ZM17.5292 23.3508H15.1833V12.224H17.5292V23.3508ZM17.5292 11.5748H6.56204V0.649175H17.5227V11.5683L17.5292 11.5748ZM20.5267 23.3508H18.1808V12.224H20.5267V23.3508ZM23.3418 23.3508H21.1784V12.224H23.3418V23.3508Z" fill="#86694F"/>
</g>
<defs>
<clipPath id="clip0_100_16">
<rect width="24" height="24" fill="white"/>
</clipPath>
</defs>
</svg>
