<svg width="24" height="24" viewBox="0 0 24 24" fill="none" xmlns="http://www.w3.org/2000/svg">
<g clip-path="url(#clip0_100_26)">
<path d="M0 0V24H24V0H0ZM23.351 23.351H0.648989V6.5277H4.63744C4.65634 6.81124 4.73825 7.18929 5.02809 7.55474C5.55106 8.20373 6.5151 8.53767 7.90129 8.55028C9.01654 8.56288 10.3082 8.56288 11.5432 8.56288C13.9879 8.56288 16.1806 8.55028 16.2121 8.55028C17.1951 8.55028 19.0286 8.12182 19.3311 6.5655H23.3573V23.3573L23.351 23.351ZM5.28013 6.534L18.6569 6.5592C18.2788 7.86978 16.294 7.90129 16.2058 7.90129C16.1554 7.90129 11.2155 7.92649 7.90129 7.90129C6.74193 7.88868 5.92281 7.63665 5.53216 7.15778C5.35574 6.93725 5.29273 6.71042 5.27383 6.5403L5.28013 6.534ZM23.351 5.92281L0.642688 5.87871V0.648989H23.351V5.92281Z" fill="#86694F"/>
<path d="M3.23882 1.82092C2.4071 1.82092 1.73291 2.49512 1.73291 3.32683C1.73291 4.15854 2.4071 4.83274 3.23882 4.83274C4.07053 4.83274 4.74472 4.15854 4.74472 3.32683C4.74472 2.49512 4.07053 1.82092 3.23882 1.82092ZM3.23882 4.18375C2.76625 4.18375 2.3756 3.79939 2.3756 3.32053C2.3756 2.84166 2.75995 2.45731 3.23882 2.45731C3.71768 2.45731 4.10204 2.84166 4.10204 3.32053C4.10204 3.79939 3.71768 4.18375 3.23882 4.18375Z" fill="#86694F"/>
<path d="M7.12016 1.82092C6.28845 1.82092 5.61426 2.49512 5.61426 3.32683C5.61426 4.15854 6.28845 4.83274 7.12016 4.83274C7.95188 4.83274 8.62607 4.15854 8.62607 3.32683C8.62607 2.49512 7.95188 1.82092 7.12016 1.82092ZM7.12016 4.18375C6.6476 4.18375 6.25695 3.79939 6.25695 3.32053C6.25695 2.84166 6.6413 2.45731 7.12016 2.45731C7.59903 2.45731 7.98338 2.84166 7.98338 3.32053C7.98338 3.79939 7.59273 4.18375 7.12016 4.18375Z" fill="#86694F"/>
<path d="M10.8121 1.82092C9.98034 1.82092 9.30615 2.49512 9.30615 3.32683C9.30615 4.15854 9.98034 4.83274 10.8121 4.83274C11.6438 4.83274 12.318 4.15854 12.318 3.32683C12.318 2.49512 11.6438 1.82092 10.8121 1.82092ZM10.8121 4.18375C10.3395 4.18375 9.94884 3.79939 9.94884 3.32053C9.94884 2.84166 10.3332 2.45731 10.8121 2.45731C11.2909 2.45731 11.6753 2.84166 11.6753 3.32053C11.6753 3.79939 11.2909 4.18375 10.8121 4.18375Z" fill="#86694F"/>
</g>
<defs>
<clipPath id="clip0_100_26">
<rect width="24" height="24" fill="white"/>
</clipPath>
</defs>
</svg>
