<svg width="24" height="24" viewBox="0 0 24 24" fill="none" xmlns="http://www.w3.org/2000/svg">
<g clip-path="url(#clip0_100_10)">
<path d="M24 24H0V0H24V24ZM0.650389 23.3496H23.3496V0.650389H0.650389V23.3496Z" fill="#86694F"/>
<path d="M6.41381 7.33458C5.36417 7.33458 4.51416 6.48457 4.51416 5.43493C4.51416 4.38529 5.36417 3.53528 6.41381 3.53528C7.46345 3.53528 8.31346 4.38529 8.31346 5.43493C8.31346 6.48457 7.46345 7.33458 6.41381 7.33458ZM6.41381 4.18567C5.72479 4.18567 5.16455 4.7459 5.16455 5.43493C5.16455 6.12396 5.72479 6.68419 6.41381 6.68419C7.10284 6.68419 7.66307 6.12396 7.66307 5.43493C7.66307 4.7459 7.10284 4.18567 6.41381 4.18567Z" fill="#86694F"/>
<path d="M8.31349 20.4647H4.51419V16.3692H3.14258V8.4422H9.6851V16.3692H8.31349V20.4647ZM5.16458 19.8143H7.6631V15.7188H9.03472V9.09259H3.79297V15.7188H5.16458V19.8143Z" fill="#86694F"/>
<path d="M20.6515 11.282H12.1191L16.3885 5.76978L20.6579 11.282H20.6515ZM13.4457 10.6316H19.3314L16.3885 6.83229L13.4457 10.6316Z" fill="#86694F"/>
<path d="M16.3885 18.739L12.1191 13.2267H20.6515L16.3821 18.739H16.3885ZM13.4457 13.8771L16.3885 17.6764L19.3314 13.8771H13.4457Z" fill="#86694F"/>
</g>
<defs>
<clipPath id="clip0_100_10">
<rect width="24" height="24" fill="white"/>
</clipPath>
</defs>
</svg>
