<svg width="24" height="24" viewBox="0 0 24 24" fill="none" xmlns="http://www.w3.org/2000/svg">
<g clip-path="url(#clip0_100_19)">
<path d="M3.4157 1.83582C2.59054 1.83582 1.92529 2.50746 1.92529 3.32622C1.92529 4.14498 2.59693 4.81663 3.4157 4.81663C4.23446 4.81663 4.9061 4.14498 4.9061 3.32622C4.9061 2.50746 4.24086 1.83582 3.4157 1.83582ZM3.4157 4.17697C2.94235 4.17697 2.56495 3.79317 2.56495 3.32622C2.56495 2.85927 2.94875 2.47547 3.4157 2.47547C3.88265 2.47547 4.26644 2.85927 4.26644 3.32622C4.26644 3.79317 3.88265 4.17697 3.4157 4.17697Z" fill="#86694F"/>
<path d="M7.24089 1.83582C6.41573 1.83582 5.75049 2.50746 5.75049 3.32622C5.75049 4.14498 6.41573 4.81663 7.24089 4.81663C8.06605 4.81663 8.7313 4.14498 8.7313 3.32622C8.7313 2.50746 8.05966 1.83582 7.24089 1.83582ZM7.24089 4.17697C6.77394 4.17697 6.39015 3.79317 6.39015 3.32622C6.39015 2.85927 6.77394 2.47547 7.24089 2.47547C7.70784 2.47547 8.09164 2.85927 8.09164 3.32622C8.09164 3.79317 7.70784 4.17697 7.24089 4.17697Z" fill="#86694F"/>
<path d="M0 0V24H24V0H0ZM23.3603 23.3603H0.639659V6.24307H23.3603V23.3603ZM23.3603 5.60341H0.639659V0.639659H23.3603V5.60341Z" fill="#86694F"/>
<path d="M11.9999 8.46906C8.48813 8.46906 5.63525 11.3219 5.63525 14.8401C5.63525 18.3582 8.48813 21.2047 11.9999 21.2047C15.5116 21.2047 18.3709 18.3518 18.3709 14.8401C18.3709 11.3283 15.5116 8.46906 11.9999 8.46906ZM11.9999 20.565C8.84634 20.565 6.27491 17.9936 6.27491 14.8401C6.27491 11.6865 8.84634 9.10871 11.9999 9.10871C15.1534 9.10871 17.7312 11.6801 17.7312 14.8401C17.7312 18 15.1598 20.565 11.9999 20.565Z" fill="#86694F"/>
</g>
<defs>
<clipPath id="clip0_100_19">
<rect width="24" height="24" fill="white"/>
</clipPath>
</defs>
</svg>
