<svg width="371" height="102" viewBox="0 0 371 102" fill="none" xmlns="http://www.w3.org/2000/svg">
<g clip-path="url(#clip0_26_149)">
<path d="M324.862 12.183C322.868 11.6995 320.814 11.8605 318.925 12.4665C314.613 13.8746 311.405 17.6489 312.048 21.7076L312.429 24.1414L310.472 22.6444C307.825 20.6043 304.123 20.8975 301.065 22.7508C300.361 23.1892 299.682 23.6926 299.067 24.2712C295.777 27.403 294.139 32.4101 297.495 38.0552C299.892 42.0746 306.031 44.3855 312.421 45.8485C315.631 46.5767 318.845 47.1148 321.648 47.6513C322.349 47.7854 323.022 47.9125 323.664 48.0463L342.844 80.3063L347.242 77.6914L347.232 77.674L352.873 74.3317L350.258 69.9334L344.617 73.2758L342.722 70.0896L346.393 67.9071L343.779 63.5088L340.108 65.6913L338.357 62.7476L347.902 57.0613L345.287 52.663L335.743 58.3493L328.063 45.4314C328.252 44.8034 328.462 44.1513 328.679 43.4715C329.546 40.7526 330.609 37.6716 331.503 34.5036C333.252 28.202 334.172 21.6967 331.786 17.6697C329.903 14.4953 327.423 12.8048 324.862 12.183Z" fill="#FFB5A7"/>
</g>
<path d="M318.818 82.583C318.818 84.469 319.209 85.78 319.991 86.516C320.773 87.206 322.13 87.551 324.062 87.551V89C319.83 88.816 317.07 88.724 315.782 88.724C314.494 88.724 311.918 88.816 308.054 89V87.551C309.756 87.551 310.929 87.206 311.573 86.516C312.263 85.78 312.608 84.469 312.608 82.583V62.642C312.608 60.894 312.493 59.491 312.263 58.433C312.079 57.329 311.596 56.432 310.814 55.742C310.078 55.052 308.928 54.707 307.364 54.707C305.616 54.707 304.029 55.259 302.603 56.363C301.177 57.467 300.05 58.985 299.222 60.917C298.44 62.803 298.049 64.896 298.049 67.196V82.583C298.049 84.469 298.44 85.78 299.222 86.516C300.004 87.206 301.361 87.551 303.293 87.551V89C299.061 88.816 296.301 88.724 295.013 88.724C293.725 88.724 291.149 88.816 287.285 89V87.551C288.987 87.551 290.16 87.206 290.804 86.516C291.494 85.78 291.839 84.469 291.839 82.583V62.642C291.839 60.894 291.724 59.491 291.494 58.433C291.31 57.329 290.827 56.432 290.045 55.742C289.309 55.052 288.159 54.707 286.595 54.707C284.847 54.707 283.26 55.259 281.834 56.363C280.408 57.467 279.281 58.985 278.453 60.917C277.671 62.849 277.28 64.965 277.28 67.265V82.583C277.28 84.469 277.602 85.78 278.246 86.516C278.936 87.206 280.132 87.551 281.834 87.551V89C277.97 88.816 275.394 88.724 274.106 88.724C272.818 88.724 270.058 88.816 265.826 89V87.551C267.758 87.551 269.115 87.206 269.897 86.516C270.679 85.78 271.07 84.469 271.07 82.583V60.986C271.07 58.87 270.679 57.329 269.897 56.363C269.115 55.397 267.758 54.914 265.826 54.914V53.465C267.298 53.603 268.724 53.672 270.104 53.672C273.002 53.672 275.394 53.35 277.28 52.706V60.848C278.384 57.996 279.948 55.903 281.972 54.569C283.996 53.189 286.204 52.499 288.596 52.499C291.724 52.499 294.116 53.373 295.772 55.121C296.922 56.317 297.635 58.157 297.911 60.641C299.061 57.743 300.648 55.673 302.672 54.431C304.696 53.143 306.927 52.499 309.365 52.499C312.493 52.499 314.885 53.373 316.541 55.121C317.369 56.041 317.944 57.214 318.266 58.64C318.634 60.066 318.818 61.906 318.818 64.16V82.583Z" fill="#86694F"/>
<path d="M257.059 81.548C257.059 83.664 257.45 85.205 258.232 86.171C259.014 87.137 260.371 87.62 262.303 87.62V89.069C260.877 88.931 259.451 88.862 258.025 88.862C255.127 88.862 252.735 89.184 250.849 89.828V81.686C249.745 84.538 248.181 86.631 246.157 87.965C244.133 89.299 241.925 89.966 239.533 89.966C236.405 89.966 234.013 89.092 232.357 87.344C231.529 86.424 230.931 85.251 230.563 83.825C230.241 82.399 230.08 80.559 230.08 78.305V60.986C230.08 58.87 229.689 57.329 228.907 56.363C228.125 55.397 226.768 54.914 224.836 54.914V53.465C226.262 53.603 227.688 53.672 229.114 53.672C232.012 53.672 234.404 53.35 236.29 52.706V79.823C236.29 81.571 236.382 82.997 236.566 84.101C236.796 85.159 237.279 86.033 238.015 86.723C238.797 87.413 239.97 87.758 241.534 87.758C243.282 87.758 244.869 87.206 246.295 86.102C247.721 84.998 248.825 83.503 249.607 81.617C250.435 79.685 250.849 77.569 250.849 75.269V60.986C250.849 58.87 250.458 57.329 249.676 56.363C248.894 55.397 247.537 54.914 245.605 54.914V53.465C247.031 53.603 248.457 53.672 249.883 53.672C252.781 53.672 255.173 53.35 257.059 52.706V81.548Z" fill="#86694F"/>
<path d="M216.466 52.499C218.306 52.499 219.801 53.028 220.951 54.086C222.147 55.144 222.745 56.432 222.745 57.95C222.745 59.146 222.377 60.181 221.641 61.055C220.951 61.883 220.008 62.297 218.812 62.297C217.8 62.297 216.926 61.975 216.19 61.331C215.5 60.687 215.155 59.813 215.155 58.709C215.155 57.191 215.937 55.949 217.501 54.983C217.179 54.523 216.696 54.293 216.052 54.293C214.258 54.293 212.625 55.006 211.153 56.432C209.681 57.812 208.531 59.514 207.703 61.538C206.875 63.562 206.461 65.471 206.461 67.265V81.893C206.461 84.009 207.059 85.481 208.255 86.309C209.497 87.137 211.337 87.551 213.775 87.551V89L212.119 88.931C207.427 88.793 204.437 88.724 203.149 88.724C201.953 88.724 199.239 88.816 195.007 89V87.551C196.939 87.551 198.296 87.206 199.078 86.516C199.86 85.78 200.251 84.469 200.251 82.583V60.986C200.251 58.87 199.86 57.329 199.078 56.363C198.296 55.397 196.939 54.914 195.007 54.914V53.465C196.479 53.603 197.905 53.672 199.285 53.672C202.183 53.672 204.575 53.35 206.461 52.706V61.331C207.289 59.031 208.6 56.984 210.394 55.19C212.234 53.396 214.258 52.499 216.466 52.499Z" fill="#86694F"/>
<path d="M190.049 80.72C189.221 83.25 187.657 85.435 185.357 87.275C183.103 89.069 180.366 89.966 177.146 89.966C173.88 89.966 171.051 89.23 168.659 87.758C166.267 86.24 164.427 84.147 163.139 81.479C161.897 78.765 161.276 75.637 161.276 72.095C161.276 68.093 161.92 64.62 163.208 61.676C164.496 58.732 166.313 56.478 168.659 54.914C171.005 53.304 173.742 52.499 176.87 52.499C181.01 52.499 184.184 53.764 186.392 56.294C188.646 58.778 189.773 62.573 189.773 67.679H168.176C168.038 68.967 167.969 70.439 167.969 72.095C167.969 75.131 168.452 77.776 169.418 80.03C170.43 82.284 171.741 84.032 173.351 85.274C175.007 86.47 176.732 87.068 178.526 87.068C180.734 87.068 182.689 86.539 184.391 85.481C186.093 84.423 187.519 82.652 188.669 80.168L190.049 80.72ZM176.594 53.81C174.432 53.81 172.569 54.868 171.005 56.984C169.441 59.1 168.475 62.228 168.107 66.368H183.149C183.241 62.78 182.712 59.79 181.562 57.398C180.458 55.006 178.802 53.81 176.594 53.81Z" fill="#86694F"/>
<path d="M146.819 53.534H157.031V54.914H146.819V81.617C146.819 83.687 147.187 85.182 147.923 86.102C148.705 87.022 149.809 87.482 151.235 87.482C152.661 87.482 153.88 86.907 154.892 85.757C155.904 84.607 156.755 82.721 157.445 80.099L158.825 80.444C157.675 86.792 154.685 89.966 149.855 89.966C148.291 89.966 147.003 89.782 145.991 89.414C144.979 89.046 144.082 88.471 143.3 87.689C142.288 86.677 141.575 85.435 141.161 83.963C140.793 82.491 140.609 80.513 140.609 78.029V54.914H133.985V53.534H140.609V42.977C143.185 42.885 145.255 42.563 146.819 42.011V53.534Z" fill="#86694F"/>
<path d="M126.442 52.499C128.282 52.499 129.777 53.028 130.927 54.086C132.123 55.144 132.721 56.432 132.721 57.95C132.721 59.146 132.353 60.181 131.617 61.055C130.927 61.883 129.984 62.297 128.788 62.297C127.776 62.297 126.902 61.975 126.166 61.331C125.476 60.687 125.131 59.813 125.131 58.709C125.131 57.191 125.913 55.949 127.477 54.983C127.155 54.523 126.672 54.293 126.028 54.293C124.234 54.293 122.601 55.006 121.129 56.432C119.657 57.812 118.507 59.514 117.679 61.538C116.851 63.562 116.437 65.471 116.437 67.265V81.893C116.437 84.009 117.035 85.481 118.231 86.309C119.473 87.137 121.313 87.551 123.751 87.551V89L122.095 88.931C117.403 88.793 114.413 88.724 113.125 88.724C111.929 88.724 109.215 88.816 104.983 89V87.551C106.915 87.551 108.272 87.206 109.054 86.516C109.836 85.78 110.227 84.469 110.227 82.583V60.986C110.227 58.87 109.836 57.329 109.054 56.363C108.272 55.397 106.915 54.914 104.983 54.914V53.465C106.455 53.603 107.881 53.672 109.261 53.672C112.159 53.672 114.551 53.35 116.437 52.706V61.331C117.265 59.031 118.576 56.984 120.37 55.19C122.21 53.396 124.234 52.499 126.442 52.499Z" fill="#86694F"/>
<path d="M79.8642 89.483C76.9662 89.483 74.8042 88.77 73.3782 87.344C71.9982 85.872 71.3082 83.848 71.3082 81.272C71.3082 79.202 71.8602 77.5 72.9642 76.166C74.1142 74.832 75.4482 73.774 76.9662 72.992C78.5302 72.21 80.5772 71.382 83.1072 70.508C85.6832 69.634 87.5922 68.829 88.8342 68.093C90.0762 67.357 90.6972 66.368 90.6972 65.126V60.848C90.6972 58.18 90.1222 56.363 88.9722 55.397C87.8682 54.385 86.3042 53.879 84.2802 53.879C81.0602 53.879 78.7832 54.707 77.4492 56.363C78.3692 56.593 79.1282 57.076 79.7262 57.812C80.3702 58.548 80.6922 59.468 80.6922 60.572C80.6922 61.722 80.3242 62.642 79.5882 63.332C78.8522 63.976 77.9092 64.298 76.7592 64.298C75.4712 64.298 74.5052 63.907 73.8612 63.125C73.2172 62.297 72.8952 61.308 72.8952 60.158C72.8952 59.054 73.1482 58.134 73.6542 57.398C74.2062 56.662 75.0112 55.926 76.0692 55.19C77.1732 54.408 78.5762 53.764 80.2782 53.258C81.9802 52.752 83.8432 52.499 85.8672 52.499C89.4552 52.499 92.1692 53.35 94.0092 55.052C95.1592 56.11 95.9182 57.398 96.2862 58.916C96.7002 60.388 96.9072 62.343 96.9072 64.781V83.963C96.9072 85.113 97.0682 85.941 97.3902 86.447C97.7122 86.953 98.2642 87.206 99.0462 87.206C99.5982 87.206 100.104 87.091 100.564 86.861C101.07 86.585 101.599 86.217 102.151 85.757L102.91 86.93C101.714 87.85 100.679 88.517 99.8052 88.931C98.9772 89.299 97.9192 89.483 96.6312 89.483C94.4232 89.483 92.8822 88.931 92.0082 87.827C91.1342 86.723 90.6972 85.228 90.6972 83.342C89.3172 85.642 87.7302 87.252 85.9362 88.172C84.1422 89.046 82.1182 89.483 79.8642 89.483ZM82.9002 86.723C85.9362 86.723 88.5352 84.975 90.6972 81.479V67.955C90.2832 68.599 89.7082 69.128 88.9722 69.542C88.2362 69.956 87.1092 70.508 85.5912 71.198C83.8432 71.934 82.4172 72.647 81.3132 73.337C80.2552 73.981 79.3352 74.878 78.5532 76.028C77.7712 77.178 77.3802 78.65 77.3802 80.444C77.3802 82.514 77.8862 84.078 78.8982 85.136C79.9102 86.194 81.2442 86.723 82.9002 86.723ZM78.3462 37.733C79.4042 37.733 80.3242 38.147 81.1062 38.975C81.9342 39.757 82.3482 40.677 82.3482 41.735C82.3482 42.839 81.9342 43.782 81.1062 44.564C80.3242 45.346 79.4042 45.737 78.3462 45.737C77.2422 45.737 76.2992 45.346 75.5172 44.564C74.7352 43.782 74.3442 42.839 74.3442 41.735C74.3442 40.677 74.7352 39.757 75.5172 38.975C76.2992 38.147 77.2422 37.733 78.3462 37.733ZM92.9742 37.733C94.0322 37.733 94.9522 38.147 95.7342 38.975C96.5622 39.757 96.9762 40.677 96.9762 41.735C96.9762 42.839 96.5622 43.782 95.7342 44.564C94.9522 45.346 94.0322 45.737 92.9742 45.737C91.8702 45.737 90.9272 45.346 90.1452 44.564C89.3632 43.782 88.9722 42.839 88.9722 41.735C88.9722 40.677 89.3632 39.757 90.1452 38.975C90.9272 38.147 91.8702 37.733 92.9742 37.733Z" fill="#86694F"/>
<path d="M48.4277 100.937C51.2337 100.799 53.3497 99.58 54.7757 97.28C56.2477 94.98 56.9837 91.783 56.9837 87.689V60.986C56.9837 58.87 56.5927 57.329 55.8107 56.363C55.0287 55.397 53.6717 54.914 51.7397 54.914V53.465C53.1657 53.603 54.5917 53.672 56.0177 53.672C58.9157 53.672 61.3077 53.35 63.1937 52.706V81.065C63.1937 88.701 61.5377 94.267 58.2257 97.763C56.9837 99.051 55.5117 100.063 53.8097 100.799C52.1537 101.581 50.3597 101.972 48.4277 101.972V100.937ZM59.4677 36.215C60.6637 36.215 61.6987 36.652 62.5727 37.526C63.4467 38.4 63.8837 39.435 63.8837 40.631C63.8837 41.827 63.4467 42.862 62.5727 43.736C61.6987 44.61 60.6637 45.047 59.4677 45.047C58.2717 45.047 57.2367 44.61 56.3627 43.736C55.4887 42.862 55.0517 41.827 55.0517 40.631C55.0517 39.435 55.4887 38.4 56.3627 37.526C57.2367 36.652 58.2717 36.215 59.4677 36.215Z" fill="#86694F"/>
<path d="M47.335 41.528C45.679 41.62 44.46 41.804 43.678 42.08C42.942 42.356 42.436 42.885 42.16 43.667C41.884 44.449 41.746 45.714 41.746 47.462V81.686C41.746 83.434 41.884 84.699 42.16 85.481C42.436 86.263 42.942 86.792 43.678 87.068C44.46 87.344 45.679 87.528 47.335 87.62V89C45.403 88.862 42.459 88.793 38.503 88.793C34.777 88.793 31.856 88.862 29.74 89V87.62C31.396 87.528 32.592 87.344 33.328 87.068C34.11 86.792 34.639 86.263 34.915 85.481C35.191 84.699 35.329 83.434 35.329 81.686V65.126H12.904V81.686C12.904 83.434 13.042 84.699 13.318 85.481C13.594 86.263 14.1 86.792 14.836 87.068C15.618 87.344 16.837 87.528 18.493 87.62V89C16.377 88.862 13.456 88.793 9.73001 88.793C5.77401 88.793 2.83001 88.862 0.89801 89V87.62C2.55401 87.528 3.75001 87.344 4.48601 87.068C5.26801 86.792 5.79701 86.263 6.07301 85.481C6.34901 84.699 6.48701 83.434 6.48701 81.686V47.462C6.48701 45.714 6.34901 44.449 6.07301 43.667C5.79701 42.885 5.26801 42.356 4.48601 42.08C3.75001 41.804 2.55401 41.62 0.89801 41.528V40.148C2.83001 40.286 5.77401 40.355 9.73001 40.355C13.41 40.355 16.331 40.286 18.493 40.148V41.528C16.837 41.62 15.618 41.804 14.836 42.08C14.1 42.356 13.594 42.885 13.318 43.667C13.042 44.449 12.904 45.714 12.904 47.462V63.746H35.329V47.462C35.329 45.714 35.191 44.449 34.915 43.667C34.639 42.885 34.11 42.356 33.328 42.08C32.592 41.804 31.396 41.62 29.74 41.528V40.148C31.856 40.286 34.777 40.355 38.503 40.355C42.459 40.355 45.403 40.286 47.335 40.148V41.528Z" fill="#86694F"/>
<defs>
<clipPath id="clip0_26_149">
<rect width="72.9336" height="72.9336" fill="white" transform="translate(299.974) rotate(14.2675)"/>
</clipPath>
</defs>
</svg>
