<svg width="24" height="24" viewBox="0 0 24 24" fill="none" xmlns="http://www.w3.org/2000/svg">
<g clip-path="url(#clip0_100_37)">
<path d="M24 24H0V5.79425H24V23.9933V24ZM0.647566 23.351H23.3524V6.44326H0.647566V23.351Z" fill="#86694F"/>
<path d="M18.3521 21.0293H3.31787V8.76501H18.3521V21.0293ZM3.96544 20.3803H17.7045V9.41402H3.96544V20.3803Z" fill="#86694F"/>
<path d="M20.996 11.3744C20.2416 11.3744 19.6274 10.7588 19.6274 10.0028C19.6274 9.24672 20.2416 8.63116 20.996 8.63116C21.7504 8.63116 22.3646 9.24672 22.3646 10.0028C22.3646 10.7588 21.7504 11.3744 20.996 11.3744ZM20.996 9.27348C20.5955 9.27348 20.275 9.60133 20.275 9.99609C20.275 10.3909 20.6021 10.7187 20.996 10.7187C21.3899 10.7187 21.717 10.3909 21.717 9.99609C21.717 9.60133 21.3899 9.27348 20.996 9.27348Z" fill="#86694F"/>
<path d="M20.996 15.2216C20.2416 15.2216 19.6274 14.6061 19.6274 13.85C19.6274 13.094 20.2416 12.4784 20.996 12.4784C21.7504 12.4784 22.3646 13.094 22.3646 13.85C22.3646 14.6061 21.7504 15.2216 20.996 15.2216ZM20.996 13.1207C20.5955 13.1207 20.275 13.4486 20.275 13.8433C20.275 14.2381 20.6021 14.5659 20.996 14.5659C21.3899 14.5659 21.717 14.2381 21.717 13.8433C21.717 13.4486 21.3899 13.1207 20.996 13.1207Z" fill="#86694F"/>
<path d="M6.47707 1.18517e-05L6.01416 0.453857L11.7656 6.34635L12.2285 5.8925L6.47707 1.18517e-05Z" fill="#86694F"/>
<path d="M17.5195 0.00600981L11.7681 5.8985L12.231 6.35234L17.9825 0.459856L17.5195 0.00600981Z" fill="#86694F"/>
</g>
<defs>
<clipPath id="clip0_100_37">
<rect width="24" height="24" fill="white"/>
</clipPath>
</defs>
</svg>
